<svg width="1075" height="1076" xmlns="http://www.w3.org/2000/svg" xmlns:xlink="http://www.w3.org/1999/xlink" xml:space="preserve" overflow="hidden"><defs><clipPath id="clip0"><rect x="1616" y="699" width="1075" height="1076"/></clipPath></defs><g clip-path="url(#clip0)" transform="translate(-1616 -699)"><path d="M1616 878.17C1616 779.217 1696.22 699 1795.17 699L2511.83 699C2610.78 699 2691 779.217 2691 878.17L2691 1595.83C2691 1694.78 2610.78 1775 2511.83 1775L1795.17 1775C1696.22 1775 1616 1694.78 1616 1595.83Z" fill="#B11116" fill-rule="evenodd"/><path d="M2492.1 1053.11C2635.81 891.664 2583.85 835.269 2583.85 835.269 2566.16 817.577 2538.53 817.577 2520.84 835.269L2101.87 1254.36 1737.07 1594.94C1711.64 1620.37 1711.64 1662.39 1737.07 1688.93 1762.49 1714.36 1804.5 1714.36 1831.03 1688.93L2163.78 1324.02C2180.36 1331.76 2224.58 1353.88 2237.84 1339.5L2492.1 1053.11Z" fill="#77787B" fill-rule="evenodd"/><path d="M2604.8 1595.05 2314.19 1320 2269.99 1369.71C2262.25 1377.44 2248.99 1387.38 2228 1388.49L2511.98 1688.95C2538.5 1714.35 2580.49 1714.35 2605.9 1688.95 2630.21 1662.43 2630.21 1620.46 2604.8 1595.05Z" fill="#FFFFFF" fill-rule="evenodd"/><path d="M2020.12 1232.34C2020.12 1232.34 2040.02 1227.92 2062.13 1231.24L2070.97 1222.4 2147.24 1146.15C2143.92 1125.15 2148.34 1104.15 2148.34 1104.15 2156.08 1056.63 2137.29 1001.38 2080.92 945.022 1988.07 852.196 1855.43 766 1855.43 766L1835.53 785.891 2058.81 1009.12C2065.44 1015.75 2065.44 1025.69 2058.81 1032.32 2052.18 1038.95 2042.23 1038.95 2035.6 1032.32L1812.32 809.098 1781.37 840.04 2004.65 1063.26C2011.28 1069.9 2011.28 1079.84 2004.65 1086.47 1998.02 1093.1 1988.07 1093.1 1981.44 1086.47L1758.16 863.247 1727.21 894.188 1950.49 1117.41C1957.12 1124.04 1957.12 1133.99 1950.49 1140.62 1943.86 1147.25 1933.91 1147.25 1927.28 1140.62L1702.9 918.5 1683 938.391C1683 938.391 1776.95 1079.84 1860.96 1164.93 1917.33 1221.29 1972.59 1240.08 2020.12 1232.34Z" fill="#FFFFFF" fill-rule="evenodd"/></g></svg>